<!--?xml version="1.0" encoding="utf-8"?-->
<!-- Svg Vector Icons : http://www.onlinewebfonts.com/icon -->

<svg version="1.1" xmlns="http://www.w3.org/2000/svg" xmlns:xlink="http://www.w3.org/1999/xlink" x="0px" y="0px" viewBox="0 0 256 256" enable-background="new 0 0 256 256" xml:space="preserve">
<metadata> Svg Vector Icons : http://www.onlinewebfonts.com/icon </metadata>
<g><g><g><path fill="#4acf4f" data-title="Layer 0" xs="0" d="M161.9,17.8l-7.9,7.8H93.4H32.8l-0.6-1.3c-0.8-1.8-3.1-4.1-5.3-5.3c-2.6-1.4-7.6-1.4-10.2,0c-8.4,4.5-8.9,16-0.7,20.8c1.8,1.1,2.6,1.2,5.9,1.2c3.3,0,4-0.1,6-1.4c1.4-0.9,2.9-2.3,3.9-3.8l1.6-2.4H72c21.3,0,38.6,0.1,38.5,0.2c-0.1,0.1-1.8,0.8-3.9,1.7c-9.9,3.9-23.4,11.9-32.5,19.2c-5.5,4.4-15.3,14.3-19.8,20C37.5,95.6,28.1,119.8,26.1,147l-0.5,7l-7.8,7.9c-7,7.1-7.8,8-7.8,9.4c0,1.4,0.8,2.4,8.4,10.1c4.6,4.7,8.8,8.7,9.3,8.9c2.4,1.4,3.2,0.9,12.5-8.5c8.5-8.5,8.9-9,8.9-10.6c0-1.7-0.4-2.2-7.9-9.8l-7.8-8l0.5-6.4c2.8-36.1,20-67.7,48.6-89.2c18.7-14.1,40.3-22.1,64.5-24l6.4-0.5l8,7.8c7.6,7.5,8.1,7.9,9.8,7.9c1.7,0,2.2-0.4,10.6-8.9c9.4-9.4,9.9-10.1,8.5-12.5c-0.3-0.5-4.3-4.7-8.9-9.4c-7.7-7.6-8.7-8.4-10.1-8.4C170,10,169,10.8,161.9,17.8z M176.6,24.6l4.9,4.9l-5.1,5.1l-5.1,5.1l-5.1-5.1l-5.1-5.1l4.9-4.9c2.7-2.8,5.1-5,5.2-5C171.5,19.6,173.9,21.9,176.6,24.6z M24.2,26.8c1.1,0.9,1.4,1.6,1.4,2.8c0,4.1-5.3,5.3-7.3,1.7c-0.9-1.6-0.6-2.9,0.8-4.3C20.8,25.3,22.4,25.3,24.2,26.8z M34.7,176.4l-5.1,5.1l-5.1-5.1l-5.1-5.1l5.1-5.1l5.1-5.1l5.1,5.1l5.1,5.1L34.7,176.4z"/><path fill="#4acf4f" data-title="Layer 1" xs="1" d="M169.6,57.5c-0.8,0.4-2.8,4.1-7.2,13c-19.5,39.7-40.6,72.2-60.8,93.8c-4.1,4.5-4.9,5.5-4.9,6.8c0,2.2,1.6,3.6,5.3,4.7c11.3,3.5,19.8,13.4,23.7,27.4c1.1,3.9,2.4,11.6,2.4,14.5c0,1.6,0.3,2.3,1.3,3.4c1.8,1.8,3.4,1.8,5.2,0c1.6-1.6,1.7-3.2,0.6-10.5c-2.8-18.7-11.9-33.4-24.9-40l-2.4-1.2l4.1-4.7c16.6-18.8,35.3-47.3,51.5-78.4l3.9-7.5v36.5v36.5l-2.1,0.7c-9.1,3.1-14.8,12.7-13.1,21.9c2.9,15.8,21.9,21.9,33.2,10.7c10.2-10.3,6-28-7.7-32.5l-2.4-0.8v-36.3V79.4l6.1,12c16.6,32.4,32.9,58.1,48.9,76.6c2.4,2.8,4.4,5.3,4.4,5.4c0,0.1-0.9,0.6-2.1,1.2c-11.5,5.1-20.5,17.3-24.2,32.9c-1.1,4.3-1.7,10.7-1.2,12.5c0.4,1.5,2.7,2.7,4.4,2.4c2.2-0.5,2.9-1.7,3.3-6.2c1.2-13.4,6.9-24.8,15.5-31.1c2.9-2.1,8-4.6,11.2-5.5c3.8-1.1,5.3-3.4,4-5.9c-0.3-0.6-2.4-3-4.6-5.3c-19.6-20.8-44.7-61.2-62.5-100.8c-1.9-4.3-4-8.3-4.5-8.9C172.7,57.3,171,56.9,169.6,57.5z M177,161.1c3.9,2.1,5.9,5.6,5.9,10.3c0,3.6-1.2,6.2-4,8.6c-2.6,2.3-4.5,2.9-8.4,2.7c-4.1-0.2-7-1.9-9.1-5.3c-3-5-2.4-10.4,1.7-14.4C166.9,159.2,172.1,158.4,177,161.1z"/><path fill="#4acf4f" data-title="Layer 2" xs="2" d="M121.3,231.5c-1.1,1.1-1.2,1.4-1.2,6.5c0,5.7,0.2,6.4,2.2,7.4c1.6,0.9,2.9,0.6,4.3-0.8c1.2-1.2,1.3-1.7,1.3-3.9v-2.6h43.3h43.3v2.8c0,2.4,0.2,3,1.2,3.9c1.6,1.6,3.6,1.5,5.3-0.2c1.3-1.3,1.3-1.4,1.3-6.4c0-4.8,0-5.2-1.2-6.5l-1.2-1.4h-48.8h-48.9L121.3,231.5z"/></g></g></g>
</svg>